<mxfile host="app.diagrams.net" modified="2024-03-26T12:18:14.210Z" agent="Mozilla/5.0 (Windows NT 10.0; Win64; x64) AppleWebKit/537.36 (KHTML, like Gecko) Chrome/122.0.0.0 Safari/537.36 Edg/122.0.0.0" version="24.1.0" etag="ZB36LfrARRGdbMEGOc2L" type="github">
  <diagram name="Page-1" id="OJoKZxOTkwtENUvRTkFq">
    <mxGraphModel>
      <root>
        <mxCell id="0" />
        <mxCell id="1" parent="0" />
      </root>
    </mxGraphModel>
  </diagram>
</mxfile>
